<svg width="500" height="500" xmlns="http://www.w3.org/2000/svg" stroke="null" style="vector-effect: non-scaling-stroke;" preserveAspectRatio="xMidYMid meet" fill="#f2a278">

 <g stroke="null">
  <title stroke="null">background</title>
  <rect stroke="null" fill="none" id="canvas_background" height="40" width="58" y="-1" x="-1"/>
 </g>
 <g stroke="null">
  <title stroke="null">Layer 1</title>
  <g id="svg_1" fill="#f2a278" transform="translate(0,500) scale(0.10000000149011612,-0.10000000149011612) ">
   <path stroke="null" id="svg_2" d="m2367.738806,4314.204648c-515.099184,-47.787301 -967.152373,-284.140706 -1272.992514,-663.856013c-108.653734,-135.61261 -167.675515,-231.187211 -236.087126,-386.173051c-269.622229,-610.902518 -155.602878,-1305.7557 299.13312,-1818.500519c270.963633,-303.513936 678.750487,-517.911014 1105.316998,-578.613802c123.409179,-18.081681 380.958771,-18.081681 504.367951,0c316.571373,45.204203 630.459938,176.942167 875.936893,365.508272c274.987845,213.10553 507.050759,545.033536 602.290452,866.629154c158.285687,528.243404 52.314761,1084.900878 -289.743291,1531.776716c-147.554454,192.440751 -407.786854,397.796989 -649.239596,512.74482c-274.987845,130.446415 -645.215384,197.606946 -938.982887,170.484424zm-564.731136,-1081.026232c29.510891,-20.664779 64.387398,-54.245044 73.777227,-74.909823c22.80387,-43.912655 26.828082,-147.236548 10.731233,-298.347741l-10.731233,-104.615442l91.21548,11.623938c49.631953,5.166195 130.1162,19.37323 178.406748,29.705619c48.290548,11.623938 100.605309,23.247876 118.043563,27.122522c25.486678,5.166195 29.510891,14.207035 29.510891,71.035177c0,136.904158 46.949144,257.018184 120.726371,311.263228c22.80387,15.498584 67.070206,25.830973 134.140412,30.997168c87.191268,6.457743 104.629522,5.166195 120.726371,-14.207035c24.145274,-28.414071 22.80387,-130.446415 -2.682808,-158.860486c-10.731233,-12.915487 -20.121062,-37.454911 -21.462466,-56.828141c-2.682808,-33.580265 -1.341404,-34.871814 41.583528,-18.081681c61.70459,24.539425 360.837709,9.040841 425.225107,-21.956327c48.290548,-24.539425 112.677946,-94.283052 222.673085,-247.977344c56.338973,-76.201371 65.728802,-99.449247 64.387398,-148.528096c-1.341404,-77.49292 -37.559315,-148.528096 -95.239693,-182.108362c-38.90072,-23.247876 -44.266336,-29.705619 -25.486678,-40.038009c12.072637,-6.457743 57.680377,-14.207035 101.946713,-16.790133c99.263905,-7.749292 191.82079,-27.122522 241.452742,-51.661947c56.338973,-28.414071 85.849864,-112.364734 68.41161,-189.857654c-17.438254,-74.909823 -65.728802,-165.318229 -87.191268,-165.318229c-9.389829,0 -44.266336,-30.997168 -79.142843,-69.743628c-33.535103,-37.454911 -89.874076,-86.533761 -124.750584,-109.781636c-63.045994,-40.038009 -89.874076,-43.912655 -60.363186,-10.332389c8.048425,10.332389 -32.193699,-3.874646 -88.532672,-30.997168c-213.283256,-100.740796 -527.171821,-174.35907 -610.338876,-142.070353l-37.559315,12.915487l8.048425,126.571769c4.024212,69.743628 16.096849,207.939335 26.828082,307.388582c25.486678,228.604114 24.145274,507.578625 -2.682808,537.284244c-10.731233,10.332389 -18.779658,36.163363 -18.779658,54.245044c0,19.37323 -5.365616,34.871814 -13.414041,34.871814c-17.438254,0 -14.755445,16.790133 -20.121062,-226.021016c-6.707021,-414.587121 -33.535103,-546.325085 -118.043563,-590.23774c-56.338973,-28.414071 -119.384967,-34.871814 -164.992707,-16.790133c-37.559315,15.498584 -44.266336,25.830973 -64.387398,109.781636c-12.072637,51.661947 -21.462466,104.615442 -21.462466,117.530928c0,12.915487 -5.365616,27.122522 -13.414041,30.997168c-8.048425,5.166195 -9.389829,-1.291549 -5.365616,-15.498584c6.707021,-19.37323 5.365616,-20.664779 -6.707021,-3.874646c-8.048425,11.623938 -14.755445,95.574601 -14.755445,213.10553c0,107.198539 -4.024212,214.397078 -8.048425,240.228052l-8.048425,46.495752l-63.045994,-10.332389c-33.535103,-6.457743 -96.581097,-18.081681 -139.506029,-25.830973l-77.801439,-15.498584l8.048425,-104.615442c9.389829,-123.988672 17.438254,-187.274556 26.828082,-201.481592c12.072637,-18.081681 13.414041,-282.849157 2.682808,-293.181547c-5.365616,-5.166195 -53.656165,-10.332389 -107.31233,-11.623938c-100.605309,-1.291549 -177.065344,21.956327 -166.334111,50.370398c2.682808,9.040841 -2.682808,33.580265 -12.072637,54.245044c-8.048425,21.956327 -20.121062,71.035177 -25.486678,109.781636c-10.731233,90.408406 -17.438254,131.737964 -33.535103,219.563273c-8.048425,38.74646 -14.755445,87.825309 -16.096849,109.781636c-4.024212,30.997168 -17.438254,45.204203 -73.777227,76.201371c-38.90072,21.956327 -71.094419,46.495752 -71.094419,55.536593c0,23.247876 54.997569,69.743628 93.898289,76.201371l33.535103,7.749292l0,169.192875c0,178.233716 38.90072,413.295573 75.118631,455.916678c26.828082,30.997168 123.409179,16.790133 191.82079,-29.705619z"/>
   <path stroke="null" id="svg_3" d="m2921.738709,2589.987181c-1.341404,-105.90699 -1.341404,-201.481592 1.341404,-209.230884c6.707021,-24.539425 22.80387,-10.332389 95.239693,89.116858c75.118631,102.032344 73.777227,118.822477 -4.024212,202.77314c-24.145274,25.830973 -52.314761,60.702787 -65.728802,78.784469c-21.462466,30.997168 -21.462466,24.539425 -26.828082,-161.443583z"/>
   <path stroke="null" id="svg_4" d="m3141.728986,2246.435237c-48.290548,-21.956327 -116.702159,-42.621106 -158.285687,-46.495752c-56.338973,-6.457743 -72.435823,-11.623938 -67.070206,-25.830973c5.365616,-10.332389 8.048425,-108.490088 8.048425,-218.271724c0,-133.029512 5.365616,-198.898494 14.755445,-198.898494c8.048425,0 63.045994,33.580265 123.409179,73.618274c60.363186,40.038009 134.140412,89.116858 163.651303,108.490088c59.021781,38.74646 146.21305,134.321061 177.065344,193.7323c17.438254,34.871814 17.438254,41.329557 -2.682808,71.035177c-21.462466,32.288717 -73.777227,59.411239 -142.188837,76.201371c-21.462466,5.166195 -60.363186,-6.457743 -116.702159,-33.580265z"/>
  </g>
 </g>
</svg>